<svg width="23" height="22" viewBox="0 0 23 22" fill="none" xmlns="http://www.w3.org/2000/svg">
<path d="M17 17.2883H16.3033C15.57 17.2883 14.8733 17.5725 14.36 18.0858L12.7925 19.6351C12.0775 20.3409 10.9133 20.3409 10.1983 19.6351L8.63083 18.0858C8.1175 17.5725 7.41167 17.2883 6.6875 17.2883H6C4.47833 17.2883 3.25 16.0692 3.25 14.5659V4.565C3.25 3.06167 4.47833 1.84253 6 1.84253H17C18.5217 1.84253 19.75 3.06167 19.75 4.565V14.5659C19.75 16.06 18.5217 17.2883 17 17.2883Z" stroke="#B7E08A" stroke-width="2" stroke-miterlimit="10" stroke-linecap="round" stroke-linejoin="round"/>
<path d="M6.9165 8.39688C6.9165 7.54438 7.61317 6.84766 8.46567 6.84766C9.31817 6.84766 10.0148 7.54438 10.0148 8.39688C10.0148 10.1202 7.56733 10.3035 7.0265 11.9444C6.9165 12.2835 7.20067 12.6227 7.55817 12.6227H10.0148" stroke="#B7E08A" stroke-width="2" stroke-linecap="round" stroke-linejoin="round"/>
<path d="M15.2031 12.6133V7.3792C15.2031 7.14087 15.0473 6.92998 14.8181 6.86582C14.5889 6.80165 14.3415 6.89332 14.2131 7.09498C13.5531 8.15832 12.8381 9.36833 12.2148 10.4317C12.114 10.6058 12.114 10.835 12.2148 11.0092C12.3156 11.1833 12.5081 11.2933 12.719 11.2933H16.0831" stroke="#B7E08A" stroke-width="2" stroke-linecap="round" stroke-linejoin="round"/>
</svg>
