<svg width="20" height="20" viewBox="0 0 20 20" fill="none" xmlns="http://www.w3.org/2000/svg">
<path d="M17.4998 11.6667V12.5C17.4998 14.0917 16.6082 15.475 15.2915 16.175L15.8332 18.3334H14.1665L13.7498 16.6667H6.24984L5.83317 18.3334H4.1665L4.70817 16.175C4.04083 15.821 3.48259 15.2918 3.0935 14.6443C2.7044 13.9968 2.49916 13.2554 2.49984 12.5V11.6667H1.6665V10H16.6665V4.16669C16.6665 3.94567 16.5787 3.73371 16.4224 3.57743C16.2661 3.42115 16.0542 3.33335 15.8332 3.33335C15.4165 3.33335 15.0998 3.61669 14.9998 3.99169C15.5248 4.44169 15.8332 5.10835 15.8332 5.83335H10.8332C10.8332 5.17031 11.0966 4.53443 11.5654 4.06559C12.0342 3.59675 12.6701 3.33335 13.3332 3.33335H13.4748C13.8165 2.36669 14.7415 1.66669 15.8332 1.66669C16.4962 1.66669 17.1321 1.93008 17.6009 2.39892C18.0698 2.86776 18.3332 3.50365 18.3332 4.16669V11.6667H17.4998ZM15.8332 11.6667H4.1665V12.5C4.1665 13.1631 4.4299 13.7989 4.89874 14.2678C5.36758 14.7366 6.00346 15 6.6665 15H13.3332C13.9962 15 14.6321 14.7366 15.1009 14.2678C15.5698 13.7989 15.8332 13.1631 15.8332 12.5V11.6667Z" fill="#A9A9A9"/>
</svg>
