<svg width="23" height="22" viewBox="0 0 23 22" fill="none" xmlns="http://www.w3.org/2000/svg">
<path d="M11.5002 20.1667C16.5628 20.1667 20.6668 16.0626 20.6668 11C20.6668 5.93739 16.5628 1.83334 11.5002 1.83334C6.43755 1.83334 2.3335 5.93739 2.3335 11C2.3335 16.0626 6.43755 20.1667 11.5002 20.1667Z" stroke="#B7E08A" stroke-width="2" stroke-linecap="round" stroke-linejoin="round"/>
<path d="M7.83314 2.75H8.7498C6.9623 8.10333 6.9623 13.8967 8.7498 19.25H7.83314" stroke="#B7E08A" stroke-width="2" stroke-linecap="round" stroke-linejoin="round"/>
<path d="M14.25 2.75C16.0375 8.10333 16.0375 13.8967 14.25 19.25" stroke="#B7E08A" stroke-width="2" stroke-linecap="round" stroke-linejoin="round"/>
<path d="M3.25 14.6667V13.75C8.60333 15.5375 14.3967 15.5375 19.75 13.75V14.6667" stroke="#B7E08A" stroke-width="2" stroke-linecap="round" stroke-linejoin="round"/>
<path d="M3.25 8.25C8.60333 6.4625 14.3967 6.4625 19.75 8.25" stroke="#B7E08A" stroke-width="1.5" stroke-linecap="round" stroke-linejoin="round"/>
</svg>
