<svg width="99" height="64" viewBox="0 0 99 64" fill="none" xmlns="http://www.w3.org/2000/svg">
<path d="M44.0157 32.2321C44.0157 35.7022 41.2384 38.2592 37.8301 38.2592C34.4218 38.2592 31.6445 35.7022 31.6445 32.2321C31.6445 28.7376 34.4218 26.2051 37.8301 26.2051C41.2384 26.2051 44.0157 28.7376 44.0157 32.2321ZM41.3079 32.2321C41.3079 30.0637 39.6983 28.58 37.8301 28.58C35.9619 28.58 34.3523 30.0637 34.3523 32.2321C34.3523 34.3788 35.9619 35.8842 37.8301 35.8842C39.6983 35.8842 41.3079 34.3761 41.3079 32.2321Z" fill="white"/>
<path d="M57.3595 32.2321C57.3595 35.7022 54.5822 38.2592 51.1739 38.2592C47.7655 38.2592 44.9883 35.7022 44.9883 32.2321C44.9883 28.7403 47.7655 26.2051 51.1739 26.2051C54.5822 26.2051 57.3595 28.7376 57.3595 32.2321ZM54.6517 32.2321C54.6517 30.0637 53.0421 28.58 51.1739 28.58C49.3057 28.58 47.696 30.0637 47.696 32.2321C47.696 34.3788 49.3057 35.8842 51.1739 35.8842C53.0421 35.8842 54.6517 34.3761 54.6517 32.2321Z" fill="white"/>
<path d="M70.1489 26.5692V37.3896C70.1489 41.8406 67.4633 43.6585 64.2885 43.6585C61.3 43.6585 59.5013 41.7047 58.823 40.107L61.1804 39.1477C61.6002 40.1287 62.6288 41.2863 64.2858 41.2863C66.318 41.2863 67.5773 40.0608 67.5773 37.7537V36.8869H67.4828C66.8767 37.6179 65.7091 38.2564 64.2357 38.2564C61.1526 38.2564 58.3281 35.6315 58.3281 32.2539C58.3281 28.8518 61.1526 26.2051 64.2357 26.2051C65.7064 26.2051 66.874 26.8437 67.4828 27.5529H67.5773V26.5719H70.1489V26.5692ZM67.7691 32.2539C67.7691 30.1316 66.3207 28.58 64.4776 28.58C62.6094 28.58 61.0442 30.1316 61.0442 32.2539C61.0442 34.3544 62.6094 35.8842 64.4776 35.8842C66.3207 35.8842 67.7691 34.3544 67.7691 32.2539Z" fill="white"/>
<path d="M74.3871 20.2266V37.8892H71.7461V20.2266H74.3871Z" fill="white"/>
<path d="M84.6801 34.2154L86.7818 35.585C86.1034 36.5659 84.4688 38.2561 81.6443 38.2561C78.1414 38.2561 75.5254 35.6094 75.5254 32.2291C75.5254 28.6449 78.1636 26.202 81.3412 26.202C84.5411 26.202 86.1062 28.6911 86.6178 30.0362L86.8985 30.721L78.6557 34.0578C79.2868 35.267 80.2681 35.8839 81.6443 35.8839C83.0232 35.8839 83.9795 35.2209 84.6801 34.2154ZM78.2109 32.047L83.7209 29.8106C83.4179 29.0579 82.5061 28.5335 81.433 28.5335C80.0569 28.5335 78.1414 29.721 78.2109 32.047Z" fill="white"/>
<path d="M21.6482 30.6638V28.1068H30.4637C30.5499 28.5525 30.5943 29.0796 30.5943 29.6503C30.5943 31.5687 30.0578 33.9409 28.3286 35.6311C26.6467 37.343 24.4977 38.256 21.651 38.256C16.3744 38.256 11.9375 34.0551 11.9375 28.8976C11.9375 23.7401 16.3744 19.5391 21.651 19.5391C24.57 19.5391 26.6495 20.6586 28.2119 22.1178L26.3659 23.9221C25.2456 22.895 23.7276 22.0961 21.6482 22.0961C17.795 22.0961 14.7815 25.1313 14.7815 28.8976C14.7815 32.6638 17.795 35.699 21.6482 35.699C24.1474 35.699 25.5708 34.7181 26.4827 33.8268C27.2222 33.104 27.7087 32.0714 27.9005 30.6611L21.6482 30.6638Z" fill="white"/>
</svg>
