<svg width="98" height="64" viewBox="0 0 98 64" fill="none" xmlns="http://www.w3.org/2000/svg">
<path d="M34.7235 26.004C34.4473 25.004 33.6386 24.2155 32.613 23.9463C30.7392 23.4463 23.244 23.4463 23.244 23.4463C23.244 23.4463 15.7489 23.4463 13.8751 23.9271C12.8691 24.1963 12.0407 25.004 11.7646 26.004C11.2715 27.831 11.2715 31.6195 11.2715 31.6195C11.2715 31.6195 11.2715 35.4272 11.7646 37.2349C12.0407 38.2349 12.8494 39.0234 13.8751 39.2926C15.7686 39.7926 23.244 39.7926 23.244 39.7926C23.244 39.7926 30.7392 39.7926 32.613 39.3119C33.6386 39.0426 34.4473 38.2542 34.7235 37.2542C35.2166 35.4272 35.2166 31.6387 35.2166 31.6387C35.2166 31.6387 35.2363 27.831 34.7235 26.004Z" fill="white"/>
<path d="M20.8574 28.1191V35.1192L27.0902 31.6192L20.8574 28.1191Z" fill="#5A48C3"/>
<path d="M46.044 38.331C45.5706 38.0233 45.2353 37.5426 45.038 36.8695C44.8408 36.2156 44.7422 35.331 44.7422 34.2541V32.7733C44.7422 31.6771 44.8605 30.7925 45.0775 30.1194C45.3142 29.4463 45.6692 28.9655 46.1426 28.6578C46.6357 28.3501 47.2669 28.1963 48.0558 28.1963C48.8251 28.1963 49.4563 28.3501 49.9296 28.6578C50.403 28.9655 50.7383 29.4655 50.9553 30.1194C51.1722 30.7732 51.2906 31.6579 51.2906 32.7733V34.2541C51.2906 35.3502 51.192 36.2156 50.975 36.8887C50.758 37.5426 50.4227 38.0426 49.9494 38.3503C49.476 38.658 48.8251 38.8118 48.0164 38.8118C47.188 38.7926 46.5174 38.6387 46.044 38.331ZM48.7067 36.7156C48.8448 36.3887 48.904 35.831 48.904 35.081V31.8886C48.904 31.1579 48.8448 30.6194 48.7067 30.2732C48.5687 29.9271 48.3517 29.7732 48.0164 29.7732C47.7008 29.7732 47.4641 29.9463 47.3458 30.2732C47.2077 30.6194 47.1485 31.1579 47.1485 31.8886V35.081C47.1485 35.831 47.2077 36.3887 47.3458 36.7156C47.4641 37.0426 47.7008 37.2156 48.0361 37.2156C48.3517 37.2156 48.5687 37.0618 48.7067 36.7156Z" fill="white"/>
<path d="M82.456 34.2737V34.7929C82.456 35.4468 82.4757 35.9468 82.5151 36.2737C82.5546 36.6006 82.6335 36.8506 82.7716 36.9852C82.8899 37.1391 83.0871 37.216 83.3633 37.216C83.7183 37.216 83.955 37.0814 84.0931 36.8122C84.2311 36.5429 84.2903 36.1006 84.31 35.466L86.3416 35.5814C86.3613 35.6775 86.3613 35.7929 86.3613 35.9468C86.3613 36.8891 86.1049 37.6006 85.5724 38.0622C85.0398 38.5237 84.2903 38.7545 83.3238 38.7545C82.1601 38.7545 81.3514 38.3891 80.878 37.6776C80.4047 36.966 80.168 35.8698 80.168 34.3698V32.5813C80.168 31.0429 80.4047 29.9275 80.8978 29.2159C81.3909 28.5044 82.2193 28.1582 83.383 28.1582C84.1917 28.1582 84.8229 28.3121 85.2568 28.6005C85.6907 28.889 85.9866 29.3505 86.1641 29.9467C86.3416 30.5621 86.4205 31.4082 86.4205 32.4852V34.2352H82.456V34.2737ZM82.7518 29.9659C82.6335 30.1198 82.5546 30.3505 82.5151 30.6775C82.4757 31.0044 82.456 31.5044 82.456 32.1775V32.9083H84.1917V32.1775C84.1917 31.5236 84.172 31.0236 84.1325 30.6775C84.0931 30.3313 83.9944 30.1005 83.8761 29.9659C83.7578 29.8313 83.5605 29.7544 83.3238 29.7544C83.0477 29.7351 82.8702 29.8121 82.7518 29.9659Z" fill="white"/>
<path d="M40.284 34.0815L37.6016 24.6006H39.9487L40.8955 28.8891C41.1322 29.9468 41.3097 30.8507 41.428 31.6007H41.4872C41.5661 31.0622 41.7436 30.1776 42.0198 28.9083L43.006 24.6006H45.3531L42.6312 34.0815V38.62H40.3038V34.0815H40.284Z" fill="white"/>
<path d="M58.9221 28.3887V38.6388H57.068L56.8707 37.3888H56.8116C56.3185 38.3311 55.5492 38.8119 54.5433 38.8119C53.853 38.8119 53.3401 38.5811 53.0048 38.1388C52.6695 37.6965 52.5117 37.0042 52.5117 36.0426V28.3887H54.8786V35.908C54.8786 36.3695 54.9378 36.6965 55.0364 36.8888C55.135 37.0811 55.3125 37.1772 55.5492 37.1772C55.7465 37.1772 55.9437 37.1196 56.141 36.9849C56.3382 36.8695 56.4763 36.7157 56.5552 36.5234V28.3887H58.9221Z" fill="white"/>
<path d="M71.0549 28.3887V38.6388H69.2008L69.0036 37.3888H68.9444C68.4513 38.3311 67.682 38.8119 66.6761 38.8119C65.9858 38.8119 65.4729 38.5811 65.1376 38.1388C64.8023 37.6965 64.6445 37.0042 64.6445 36.0426V28.3887H67.0114V35.908C67.0114 36.3695 67.0706 36.6965 67.1692 36.8888C67.2678 37.0811 67.4454 37.1772 67.682 37.1772C67.8793 37.1772 68.0765 37.1196 68.2738 36.9849C68.471 36.8695 68.6091 36.7157 68.688 36.5234V28.3887H71.0549Z" fill="white"/>
<path d="M65.3536 26.466H63.0065V38.62H60.6987V26.466H58.3516V24.6006H65.3536V26.466Z" fill="white"/>
<path d="M78.8849 30.0234C78.7469 29.3696 78.5102 28.908 78.1946 28.6196C77.879 28.3311 77.4254 28.1773 76.8731 28.1773C76.4392 28.1773 76.025 28.2926 75.6502 28.5426C75.2754 28.7734 74.9796 29.1003 74.7823 29.485H74.7626V24.0811H72.4746V38.6197H74.4273L74.664 37.6581H74.7232C74.9007 38.0043 75.1768 38.2735 75.5516 38.4851C75.9263 38.6774 76.3208 38.7928 76.7745 38.7928C77.5832 38.7928 78.1552 38.4274 78.5299 37.7158C78.9047 37.0043 79.1019 35.8697 79.1019 34.3504V32.735C79.0822 31.5619 79.023 30.6581 78.8849 30.0234ZM76.7153 34.1966C76.7153 34.9466 76.6758 35.5235 76.6167 35.9466C76.5575 36.3697 76.4392 36.6774 76.3011 36.8504C76.1433 37.0235 75.9461 37.1197 75.7094 37.1197C75.5121 37.1197 75.3346 37.0812 75.1768 36.9851C75.019 36.8889 74.881 36.7543 74.7823 36.5812V30.7734C74.8612 30.5042 74.9993 30.2734 75.1965 30.0811C75.3938 29.9081 75.6107 29.8119 75.8277 29.8119C76.0644 29.8119 76.2616 29.9081 76.38 30.0811C76.5181 30.2734 76.597 30.5811 76.6561 31.0042C76.7153 31.4465 76.735 32.0619 76.735 32.8504V34.1966H76.7153Z" fill="white"/>
</svg>
