<svg width="99" height="64" viewBox="0 0 99 64" fill="none" xmlns="http://www.w3.org/2000/svg">
<path fill-rule="evenodd" clip-rule="evenodd" d="M58.279 37.7826C53.912 40.9209 47.5823 42.5954 42.1325 42.5954C34.491 42.5954 27.6117 39.8397 22.4072 35.2566C21.9984 34.8961 22.3647 34.4049 22.8554 34.6856C28.472 37.8719 35.4167 39.7887 42.5904 39.7887C47.4285 39.7887 52.7507 38.8127 57.6444 36.7875C58.3836 36.4813 59.0019 37.2595 58.279 37.7826Z" fill="white"/>
<path fill-rule="evenodd" clip-rule="evenodd" d="M60.0966 35.7575C59.5405 35.0621 56.4067 35.4289 55 35.5916C54.5715 35.6427 54.5062 35.279 54.8921 35.0175C57.388 33.3048 61.4836 33.7992 61.9611 34.3732C62.4387 34.9505 61.8369 38.9532 59.4914 40.8637C59.1316 41.1571 58.7881 41.0008 58.9484 40.6117C59.4751 39.3296 60.656 36.456 60.0966 35.7575Z" fill="white"/>
<path fill-rule="evenodd" clip-rule="evenodd" d="M55.0967 22.9268V21.262C55.0967 21.01 55.293 20.8409 55.5285 20.8409H63.1732C63.4186 20.8409 63.6149 21.0131 63.6149 21.262V22.6876C63.6116 22.9268 63.4055 23.2394 63.0392 23.7337L59.0778 29.2482C60.5498 29.2132 62.1036 29.4268 63.4382 30.1604C63.7392 30.3262 63.8209 30.5687 63.8439 30.8078V32.5843C63.8439 32.8267 63.569 33.1105 63.2812 32.9639C60.9292 31.7615 57.8053 31.6307 55.2047 32.9766C54.9397 33.117 54.6617 32.8363 54.6617 32.5939V30.9067C54.6617 30.6356 54.6649 30.1731 54.9429 29.7617L59.5324 23.3447H55.5383C55.293 23.3447 55.0967 23.1756 55.0967 22.9268ZM27.2099 33.3147H24.8841C24.6616 33.2988 24.485 33.1361 24.4686 32.9288V21.2907C24.4686 21.0578 24.6682 20.8728 24.9168 20.8728H27.0856C27.3113 20.8823 27.4912 21.0514 27.5076 21.2619V22.7833H27.5501C28.116 21.313 29.1791 20.6274 30.6119 20.6274C32.0675 20.6274 32.977 21.313 33.6312 22.7833C34.1939 21.313 35.4729 20.6274 36.8436 20.6274C37.8183 20.6274 38.8848 21.0197 39.5357 21.8999C40.2717 22.879 40.1212 24.3015 40.1212 25.5486L40.1179 32.8937C40.1179 33.1266 39.9184 33.3147 39.6698 33.3147H37.3473C37.1151 33.2988 36.9286 33.1171 36.9286 32.8937V26.7254C36.9286 26.2342 36.9744 25.0094 36.8632 24.5439C36.6898 23.7624 36.1697 23.5423 35.4958 23.5423C34.9331 23.5423 34.3443 23.9091 34.1055 24.496C33.8668 25.0829 33.8897 26.0652 33.8897 26.7254V32.8937C33.8897 33.1265 33.6901 33.3147 33.4415 33.3147H31.1189C30.8834 33.2988 30.7002 33.117 30.7002 32.8937L30.697 26.7254C30.697 25.4273 30.9161 23.5169 29.2642 23.5169C27.5927 23.5169 27.658 25.3794 27.658 26.7254V32.8937C27.658 33.1265 27.4585 33.3147 27.2099 33.3147ZM70.1965 20.6273C73.6476 20.6273 75.5155 23.5168 75.5155 27.191C75.5155 30.7408 73.4513 33.5571 70.1964 33.5571C66.8075 33.5571 64.9626 30.6675 64.9626 27.0666C64.9626 23.4435 66.8304 20.6273 70.1965 20.6273ZM70.2161 23.0034C68.502 23.0034 68.3941 25.2806 68.3941 26.6998C68.3941 28.1224 68.3712 31.1586 70.1965 31.1586C71.9989 31.1586 72.0839 28.7092 72.0839 27.2165C72.0839 26.2342 72.0414 25.0605 71.7372 24.1292C71.4755 23.3191 70.9554 23.0034 70.2162 23.0034M79.9904 33.3147H77.6744C77.4422 33.2988 77.2557 33.117 77.2557 32.8937L77.2525 21.2524C77.272 21.0387 77.4651 20.8728 77.7006 20.8728H79.8563C80.0591 20.8823 80.2259 21.0164 80.2717 21.1981V22.9779H80.3142C80.9653 21.3864 81.8779 20.6273 83.484 20.6273C84.5275 20.6273 85.5449 20.994 86.1992 21.9987C86.8076 22.9299 86.8076 24.496 86.8076 25.6219V32.9479C86.7814 33.152 86.5884 33.3147 86.3594 33.3147H84.027C83.8144 33.2988 83.6378 33.1456 83.6149 32.9479V26.6265C83.6149 25.3539 83.7654 23.4913 82.1592 23.4913C81.5934 23.4913 81.0732 23.8613 80.8148 24.4226C80.4876 25.1339 80.4451 25.8419 80.4451 26.6266V32.8937C80.4418 33.1265 80.239 33.3147 79.9904 33.3147ZM49.0025 27.7556C49.0025 28.639 49.0254 29.3758 48.5674 30.1603C48.1978 30.7983 47.609 31.1905 46.958 31.1905C46.065 31.1905 45.5416 30.5272 45.5416 29.548C45.5416 27.6152 47.3179 27.2644 49.0025 27.2644V27.7556ZM51.3479 33.2828C51.1942 33.4167 50.9718 33.4263 50.7984 33.337C50.0264 32.7119 49.8857 32.4217 49.4638 31.8252C48.188 33.0946 47.2819 33.4742 45.6299 33.4742C43.6705 33.4742 42.1494 32.2972 42.1494 29.9404C42.1494 28.1 43.17 26.8466 44.6289 26.2342C45.8916 25.692 47.6548 25.5963 49.0026 25.4464V25.153C49.0026 24.614 49.045 23.9761 48.7179 23.5105C48.4366 23.0927 47.8935 22.9204 47.4127 22.9204C46.5262 22.9204 45.7379 23.3637 45.5449 24.2823C45.5056 24.4864 45.3518 24.6873 45.1392 24.6969L42.8854 24.4609C42.6957 24.4195 42.483 24.2695 42.5386 23.9857C43.0555 21.3194 45.5285 20.5156 47.7399 20.5156C48.8717 20.5156 50.3503 20.8091 51.2434 21.6447C52.3751 22.6749 52.2672 24.0494 52.2672 25.5453V29.0791C52.2672 30.1413 52.7187 30.6068 53.1439 31.181C53.2912 31.3851 53.3238 31.6307 53.1341 31.7838C52.6598 32.1697 51.8158 32.8873 51.3513 33.2892L51.348 33.2828M18.5118 27.7556C18.5118 28.639 18.5347 29.3758 18.0767 30.1603C17.7071 30.7983 17.1216 31.1905 16.4673 31.1905C15.5743 31.1905 15.0541 30.5272 15.0541 29.548C15.0541 27.6152 16.8304 27.2644 18.5118 27.2644V27.7556ZM20.8572 33.2828C20.7035 33.4167 20.4811 33.4263 20.3077 33.337C19.5357 32.7119 19.3983 32.4217 18.9731 31.8252C17.6973 33.0946 16.7945 33.4742 15.1392 33.4742C13.1831 33.4742 11.6587 32.2972 11.6587 29.9404C11.6587 28.1 12.6826 26.8466 14.1382 26.2342C15.401 25.692 17.1641 25.5963 18.5118 25.4464V25.153C18.5118 24.614 18.5544 23.9761 18.2305 23.5105C17.9459 23.0927 17.4029 22.9204 16.9253 22.9204C16.0388 22.9204 15.2472 23.3637 15.0541 24.2823C15.0149 24.4864 14.8612 24.6873 14.6518 24.6969L12.3947 24.4609C12.2049 24.4195 11.9957 24.2695 12.048 23.9857C12.5681 21.3194 15.0378 20.5156 17.2492 20.5156C18.3809 20.5156 19.8595 20.8091 20.7526 21.6447C21.8843 22.6749 21.7764 24.0494 21.7764 25.5453V29.0791C21.7764 30.1413 22.2279 30.6068 22.6531 31.181C22.8036 31.3851 22.8363 31.6307 22.6466 31.7838C22.1722 32.1697 21.3283 32.8873 20.8638 33.2892L20.8573 33.2828" fill="white"/>
</svg>
