<svg width="98" height="64" viewBox="0 0 98 64" fill="none" xmlns="http://www.w3.org/2000/svg">
<path d="M16.0341 38.3863H13.2024V31.5038H11.2734V29.263H13.2024V27.6685C13.2024 25.779 14.0555 24.4238 16.8795 24.4238C17.4768 24.4238 18.4145 24.5412 18.4145 24.5412V26.6219H17.4296C16.4261 26.6219 16.0343 26.9196 16.0343 27.7424V29.263H18.377L18.1683 31.5038H16.0342L16.0341 38.3863ZM22.5315 29.0839C22.4902 29.0839 22.4478 29.0853 22.4058 29.0864C19.7801 29.0864 18.5787 31.0121 18.5787 33.7456C18.5787 37.1892 20.137 38.5674 22.4263 38.5674C23.7361 38.5674 24.5966 38.0299 25.1196 37.0268V38.3873H27.813V29.2639H25.1196V30.667C24.6925 29.7643 23.808 29.0946 22.5315 29.0839ZM23.2163 31.2397C24.3191 31.2397 24.981 31.9897 24.981 33.2654L24.9836 34.5684C24.9836 35.4282 24.4369 36.4341 23.2163 36.4341C21.3399 36.4341 21.39 34.4586 21.39 33.8006C21.39 31.5874 22.3898 31.2397 23.2163 31.2397ZM28.9007 33.8261C28.9007 32.7174 28.8462 29.0898 33.6936 29.0898C35.6395 29.0898 36.452 29.6931 36.452 29.6931L35.7989 31.6679C35.7989 31.6679 34.9875 31.2322 33.9301 31.2322C32.5759 31.2322 31.7118 31.9977 31.7118 33.3445L31.7133 34.3102C31.7133 35.6043 32.547 36.4681 33.9329 36.4681C34.8962 36.4681 35.784 36.0284 35.784 36.0284L36.4354 37.962C36.4354 37.962 35.6925 38.569 33.7073 38.569C29.0918 38.569 28.9007 35.3143 28.9007 33.8261H28.9007ZM52.244 29.0864C54.8698 29.0864 56.09 31.0121 56.09 33.7456C56.09 37.1892 54.5317 38.5674 52.2424 38.5674C50.9327 38.5674 49.9644 38.0299 49.4414 37.0268V38.3873L46.782 38.3863V24.7012L49.6056 24.4611V30.5434C50.0131 29.4792 51.3524 29.0864 52.2441 29.0864H52.244ZM51.4524 31.2397C50.3496 31.2397 49.6056 31.9897 49.6056 33.2654L49.603 34.5684C49.6013 35.4282 50.1182 36.4341 51.4524 36.4341C53.3288 36.4341 53.2787 34.4586 53.2787 33.8006C53.2787 31.5874 52.279 31.2397 51.4524 31.2397ZM41.3512 29.0939C38.3731 29.0939 36.8008 30.6771 36.8008 33.4905V34.0132C36.8008 37.6648 39.0088 38.6049 41.6411 38.6049C44.1997 38.6049 45.3578 37.9071 45.3578 37.9071L44.8294 36.049C44.8294 36.049 43.4671 36.6141 41.9796 36.6141C40.4376 36.6141 39.7744 36.2309 39.6044 34.7861H45.5836V33.2954C45.5836 30.2435 43.819 29.0938 41.3512 29.0938L41.3512 29.0939ZM41.423 30.9545C42.4539 30.9545 43.1219 31.5709 43.0852 33.0003H39.6096C39.6699 31.4959 40.3902 30.9546 41.423 30.9546V30.9545ZM61.7203 29.0814C58.6619 29.0814 57.0519 30.7618 57.0519 33.7731C57.0519 37.9048 59.8273 38.5699 61.7254 38.5699C64.5041 38.5699 66.3527 37.1113 66.3527 33.8106C66.3527 30.3752 64.2741 29.0814 61.7203 29.0814ZM61.6818 31.2472C63.0266 31.2472 63.5595 32.2285 63.5595 33.3455V34.3058C63.5595 35.659 62.8138 36.4417 61.6767 36.4417C60.6132 36.4417 59.8657 35.7096 59.8657 34.3058V33.3455C59.8657 31.8484 60.7551 31.2472 61.6818 31.2472ZM71.9779 29.0814C68.9196 29.0814 67.3095 30.7618 67.3095 33.7731C67.3095 37.9048 70.0849 38.5699 71.983 38.5699C74.7617 38.5699 76.6104 37.1113 76.6104 33.8106C76.6104 30.3752 74.5317 29.0814 71.9779 29.0814ZM71.9395 31.2472C73.2843 31.2472 73.8171 32.2285 73.8171 33.3455V34.3058C73.8171 35.659 73.0714 36.4417 71.9344 36.4417C70.8708 36.4417 70.1234 35.7096 70.1234 34.3058V33.3455C70.1234 31.8484 71.0128 31.2472 71.9395 31.2472ZM77.6775 38.3863V24.7012L80.5093 24.4612V33.6338L83.3188 29.263H86.3094L83.3786 33.7899L86.4223 38.3863H83.4232L80.5093 33.9232V38.3863H77.6775Z" fill="white"/>
</svg>
