<svg width="20" height="20" viewBox="0 0 20 20" fill="none" xmlns="http://www.w3.org/2000/svg">
<path d="M1.6665 15.8334V10.8334C1.6665 10.4584 1.74289 10.1181 1.89567 9.81252C2.04845 9.50696 2.24984 9.23613 2.49984 9.00002V6.66669C2.49984 5.97224 2.74289 5.38196 3.229 4.89585C3.71512 4.40974 4.30539 4.16669 4.99984 4.16669H8.33317C8.65262 4.16669 8.95123 4.22585 9.229 4.34419C9.50678 4.46252 9.76373 4.62558 9.99984 4.83335C10.2359 4.62502 10.4929 4.46196 10.7707 4.34419C11.0484 4.22641 11.3471 4.16724 11.6665 4.16669H14.9998C15.6943 4.16669 16.2846 4.40974 16.7707 4.89585C17.2568 5.38196 17.4998 5.97224 17.4998 6.66669V9.00002C17.7498 9.23613 17.9512 9.50696 18.104 9.81252C18.2568 10.1181 18.3332 10.4584 18.3332 10.8334V15.8334H16.6665V14.1667H3.33317V15.8334H1.6665ZM10.8332 8.33335H15.8332V6.66669C15.8332 6.43058 15.7532 6.2328 15.5932 6.07335C15.4332 5.91391 15.2354 5.83391 14.9998 5.83335H11.6665C11.4304 5.83335 11.2326 5.91335 11.0732 6.07335C10.9137 6.23335 10.8337 6.43113 10.8332 6.66669V8.33335ZM4.1665 8.33335H9.1665V6.66669C9.1665 6.43058 9.0865 6.2328 8.9265 6.07335C8.7665 5.91391 8.56873 5.83391 8.33317 5.83335H4.99984C4.76373 5.83335 4.56595 5.91335 4.4065 6.07335C4.24706 6.23335 4.16706 6.43113 4.1665 6.66669V8.33335ZM3.33317 12.5H16.6665V10.8334C16.6665 10.5972 16.5865 10.3995 16.4265 10.24C16.2665 10.0806 16.0687 10.0006 15.8332 10H4.1665C3.93039 10 3.73261 10.08 3.57317 10.24C3.41373 10.4 3.33373 10.5978 3.33317 10.8334V12.5Z" fill="#A9A9A9"/>
</svg>
