<svg width="99" height="64" viewBox="0 0 99 64" fill="none" xmlns="http://www.w3.org/2000/svg">
<path d="M22.298 40.5068C21.1676 40.7003 20.0172 40.7584 18.8272 40.9129L15.1976 30.548V41.3577C14.0672 41.4737 13.0359 41.6284 11.9648 41.7831V21.9814H14.9796L19.1049 33.2168V21.9814H22.298V40.5068ZM28.5456 29.233C29.7753 29.233 31.6595 29.175 32.79 29.175V32.269C31.3817 32.269 29.7356 32.269 28.5456 32.327V36.9294C30.41 36.8134 32.2743 36.6586 34.1584 36.6006V39.5784L25.3722 40.2553V21.9814H34.1584V25.0755H28.5456V29.233ZM45.9593 25.0755H42.667V39.308C41.596 39.308 40.5249 39.308 39.4938 39.3465V25.0755H36.2015V21.9814H45.9594L45.9593 25.0755ZM51.1159 29.0204H55.4595V32.1143H51.1159V39.134H48.0019V21.9814H56.8677V25.0755H51.1159V29.0204ZM62.0243 36.4266C63.8292 36.4652 65.6538 36.6008 67.4191 36.6973V39.7527C64.5829 39.5785 61.7467 39.4047 58.8511 39.3465V21.9814H62.0243V36.4266ZM70.0965 39.9654C71.108 40.0235 72.179 40.0815 73.2104 40.1974V21.9814H70.0965V39.9654ZM87.1137 21.9814L83.0874 31.3989L87.1137 41.7831C85.9236 41.6284 84.7336 41.4157 83.5435 41.2223L81.2628 35.4985L78.9425 40.7584C77.7919 40.5648 76.6813 40.5068 75.5312 40.3521L79.6168 31.2827L75.9277 21.9814H79.3389L81.4214 27.1833L83.6428 21.9814H87.1137Z" fill="white"/>
</svg>
