<svg width="23" height="22" viewBox="0 0 23 22" fill="none" xmlns="http://www.w3.org/2000/svg">
<path d="M11.986 18.7183H6.19266C3.296 18.7183 2.3335 16.7933 2.3335 14.8591V7.14078C2.3335 4.24412 3.296 3.28162 6.19266 3.28162H11.986C14.8827 3.28162 15.8452 4.24412 15.8452 7.14078V14.8591C15.8452 17.7558 14.8735 18.7183 11.986 18.7183Z" stroke="#3860E2" stroke-width="2" stroke-linecap="round" stroke-linejoin="round"/>
<path d="M18.3935 15.675L15.8452 13.8875V8.10333L18.3935 6.31583C19.6402 5.445 20.6669 5.97666 20.6669 7.5075V14.4925C20.6669 16.0233 19.6402 16.555 18.3935 15.675Z" stroke="#3860E2" stroke-width="2" stroke-linecap="round" stroke-linejoin="round"/>
<path d="M11.0415 10.0834C11.8009 10.0834 12.4165 9.46777 12.4165 8.70837C12.4165 7.94898 11.8009 7.33337 11.0415 7.33337C10.2821 7.33337 9.6665 7.94898 9.6665 8.70837C9.6665 9.46777 10.2821 10.0834 11.0415 10.0834Z" stroke="#3860E2" stroke-width="2" stroke-linecap="round" stroke-linejoin="round"/>
</svg>
